<svg width="33" height="27" viewBox="0 0 33 27" fill="none" xmlns="http://www.w3.org/2000/svg">
<path fill-rule="evenodd" clip-rule="evenodd" d="M1 8.77059V25H7.87191V9.20923L7.87668 9.21512C7.9372 8.46324 8.56656 7.87193 9.33402 7.87193C10.1415 7.87193 10.7961 8.52654 10.7961 9.33404C10.7961 10.1415 10.1415 10.7961 9.33402 10.7961C9.25948 10.7961 9.18624 10.7906 9.1147 10.7798V16.8853C12.5964 16.9037 14.6078 16.4727 16.1328 14.8383L10.5037 1.02142C5.33538 0.686972 1.20528 4.31427 1 8.77059Z" fill="#E93D44"/>
<path d="M1 25H0.5V25.5H1V25ZM1 8.77059L0.50053 8.74759L0.5 8.75908V8.77059H1ZM7.87191 25V25.5H8.37191V25H7.87191ZM7.87191 9.20923L8.26054 8.89464L7.37191 7.79686V9.20923H7.87191ZM7.87668 9.21512L7.48805 9.52971L8.27475 10.5016L8.37507 9.25524L7.87668 9.21512ZM9.1147 10.7798L9.18908 10.2854L8.6147 10.199V10.7798H9.1147ZM9.1147 16.8853H8.6147V17.3827L9.11205 17.3853L9.1147 16.8853ZM16.1328 14.8383L16.4984 15.1795L16.7165 14.9457L16.5959 14.6497L16.1328 14.8383ZM10.5037 1.02142L10.9668 0.832768L10.8486 0.542687L10.536 0.52246L10.5037 1.02142ZM1.5 25V8.77059H0.5V25H1.5ZM7.87191 24.5H1V25.5H7.87191V24.5ZM7.37191 9.20923V25H8.37191V9.20923H7.37191ZM8.26531 8.90053L8.26054 8.89464L7.48328 9.52382L7.48805 9.52971L8.26531 8.90053ZM8.37507 9.25524C8.41485 8.76099 8.82925 8.37193 9.33402 8.37193V7.37193C8.30386 7.37193 7.45955 8.16548 7.37829 9.175L8.37507 9.25524ZM9.33402 8.37193C9.86538 8.37193 10.2961 8.80268 10.2961 9.33404H11.2961C11.2961 8.2504 10.4177 7.37193 9.33402 7.37193V8.37193ZM10.2961 9.33404C10.2961 9.8654 9.86538 10.2961 9.33402 10.2961V11.2961C10.4177 11.2961 11.2961 10.4177 11.2961 9.33404H10.2961ZM9.33402 10.2961C9.28446 10.2961 9.23608 10.2924 9.18908 10.2854L9.04033 11.2742C9.13641 11.2887 9.2345 11.2961 9.33402 11.2961V10.2961ZM9.6147 16.8853V10.7798H8.6147V16.8853H9.6147ZM15.7673 14.4972C14.3954 15.9674 12.5769 16.4036 9.11735 16.3853L9.11205 17.3853C12.616 17.4039 14.8201 16.9781 16.4984 15.1795L15.7673 14.4972ZM10.0407 1.21007L15.6698 15.027L16.5959 14.6497L10.9668 0.832768L10.0407 1.21007ZM1.49947 8.7936C1.69038 4.64917 5.54879 1.20183 10.4714 1.52037L10.536 0.52246C5.12197 0.172116 0.720173 3.97937 0.50053 8.74759L1.49947 8.7936Z" fill="#E93D44"/>
<path d="M11.7465 1H19.6419L21.6157 7.39931L23.2971 2.39755L27.0255 11.4449L21.5426 24.9055L11.7465 1Z" fill="#E93D44"/>
<path d="M11.7465 1V0.5H11.0012L11.2838 1.18959L11.7465 1ZM19.6419 1L20.1197 0.852628L20.0109 0.5H19.6419V1ZM21.6157 7.39931L21.1379 7.54668L21.5953 9.02934L22.0897 7.55863L21.6157 7.39931ZM23.2971 2.39755L23.7594 2.20704L23.2496 0.969864L22.8232 2.23823L23.2971 2.39755ZM27.0255 11.4449L27.4886 11.6335L27.5659 11.4438L27.4878 11.2543L27.0255 11.4449ZM21.5426 24.9055L21.08 25.0951L21.544 26.2275L22.0057 25.0941L21.5426 24.9055ZM11.7465 1.5H19.6419V0.5H11.7465V1.5ZM19.1641 1.14737L21.1379 7.54668L22.0935 7.25194L20.1197 0.852628L19.1641 1.14737ZM22.0897 7.55863L23.7711 2.55687L22.8232 2.23823L21.1418 7.23999L22.0897 7.55863ZM22.8349 2.58806L26.5632 11.6354L27.4878 11.2543L23.7594 2.20704L22.8349 2.58806ZM26.5625 11.2562L21.0796 24.7169L22.0057 25.0941L27.4886 11.6335L26.5625 11.2562ZM22.0053 24.7159L12.2092 0.810408L11.2838 1.18959L21.08 25.0951L22.0053 24.7159Z" fill="#E93D44"/>
<path d="M23.7358 1L27.4642 10.1944L31.3388 1H23.7358Z" fill="#ECC8C8" stroke="#ECC8C8"/>
</svg>
